<svg xmlns="http://www.w3.org/2000/svg" width="512" height="512" viewBox="0 0 512 512">
  <defs>
    <linearGradient id="wood" x1="0" y1="0" x2="1" y2="1">
      <stop offset="0%" stop-color="#9c6a3d" />
      <stop offset="50%" stop-color="#8b5a30" />
      <stop offset="100%" stop-color="#7a4d27" />
    </linearGradient>
    <filter id="grain" x="-20%" y="-20%" width="140%" height="140%">
      <feTurbulence type="fractalNoise" baseFrequency="0.75" numOctaves="2" seed="17" result="noise" />
      <feColorMatrix in="noise" type="matrix" values="0 0 0 0 0.28  0 0 0 0 0.18  0 0 0 0 0.10  0 0 0 0.18 0" />
    </filter>
  </defs>
  <rect width="512" height="512" fill="url(#wood)" />
  <g opacity="0.35">
    <path d="M0 48 C120 20, 220 80, 512 56" stroke="#c38a57" stroke-width="6" fill="none" />
    <path d="M0 116 C120 82, 280 150, 512 124" stroke="#734520" stroke-width="5" fill="none" />
    <path d="M0 196 C150 172, 260 212, 512 194" stroke="#b97f4d" stroke-width="4" fill="none" />
    <path d="M0 286 C160 260, 320 320, 512 290" stroke="#704221" stroke-width="6" fill="none" />
    <path d="M0 360 C150 342, 290 390, 512 364" stroke="#c28a58" stroke-width="5" fill="none" />
    <path d="M0 444 C160 420, 310 470, 512 446" stroke="#734522" stroke-width="4" fill="none" />
  </g>
  <rect width="512" height="512" filter="url(#grain)" />
</svg>
